<svg xmlns="http://www.w3.org/2000/svg" width="444" height="80" viewBox="0 0 444 80" fill="none" preserveAspectRatio="xMidYMid meet" class="gp-logo">
  <path fill="#B1362E" d="M31.2102 8.78979 39.01277.98722l7.80257 7.80257-7.80257 7.80257z"/>
  <path fill="#BD472D" d="m23.4077 16.5923 7.80257-7.80257 7.80257 7.80257-7.80257 7.80257z"/>
  <path fill="#C6552B" d="m15.6051 24.3949 7.80257-7.80257 7.80257 7.80257-7.80257 7.80257z"/>
  <path fill="#D06829" d="m7.80256 32.1974 7.80257-7.80257 7.80257 7.80257-7.80257 7.80257z"/>
  <path fill="#D87927" d="m15.6051 40 7.80257-7.80257L31.21024 40l-7.80257 7.80257z"/>
  <path fill="#DE8A27" d="m7.80256 47.8026 7.80257-7.80257 7.80257 7.80257-7.80257 7.80257z"/>
  <path fill="#D87927" d="m0 40 7.80257-7.80257L15.60514 40l-7.80257 7.80257z"/>
  <path fill="#D06829" d="m23.4077 32.1974 7.80257-7.80257 7.80257 7.80257-7.80257 7.80257z"/>
  <path fill="#D87927" d="m31.2102 40 7.80257-7.80257L46.81534 40l-7.80257 7.80257z"/>
  <path fill="#DE8A27" d="m23.4077 47.8026 7.80257-7.80257 7.80257 7.80257-7.80257 7.80257z"/>
  <path fill="#E29B27" d="m15.6051 55.6051 7.80257-7.80257 7.80257 7.80257-7.80257 7.80257z"/>
  <path fill="#C6552B" d="m31.2102 24.3949 7.80257-7.80257 7.80257 7.80257-7.80257 7.80257z"/>
  <path fill="#D06829" d="m39.0128 32.1974 7.80257-7.80257 7.80257 7.80257-7.80257 7.80257z"/>
  <path fill="#D87927" d="m46.8153 40 7.80257-7.80257L62.42044 40l-7.80257 7.80257z"/>
  <path fill="#DE8A27" d="m39.0128 47.8026 7.80257-7.80257 7.80257 7.80257-7.80257 7.80257z"/>
  <path fill="#E29B27" d="m31.2102 55.6051 7.80257-7.80257 7.80257 7.80257-7.80257 7.80257z"/>
  <path fill="#EAAE2C" d="m23.4077 63.4077 7.80257-7.80257 7.80257 7.80257-7.80257 7.80257z"/>
  <path fill="#BD472D" d="m39.0128 16.5923 7.80257-7.80257 7.80257 7.80257-7.80257 7.80257z"/>
  <path fill="#C6552B" d="m46.8153 24.3949 7.80257-7.80257 7.80257 7.80257-7.80257 7.80257z"/>
  <path fill="#D06829" d="m54.6179 32.1974 7.80257-7.80257 7.80257 7.80257-7.80257 7.80257z"/>
  <path fill="#D87927" d="m62.4205 40 7.80257-7.80257L78.02564 40l-7.80257 7.80257z"/>
  <path fill="#DE8A27" d="m54.6179 47.8026 7.80257-7.80257 7.80257 7.80257-7.80257 7.80257z"/>
  <path fill="#E29B27" d="m46.8153 55.6051 7.80257-7.80257 7.80257 7.80257-7.80257 7.80257z"/>
  <path fill="#EAAE2C" d="m39.0128 63.4077 7.80257-7.80257 7.80257 7.80257-7.80257 7.80257z"/>
  <path fill="#E9BE31" d="m31.2102 71.2102 7.80257-7.80257 7.80257 7.80257-7.80257 7.80257z"/>
  <path fill="#000" fill-rule="evenodd" d="M400.22 23.8855c.639.6389 1.42.9584 2.343.9584.887 0 1.632-.3195 2.236-.9584.639-.6389.958-1.4197.958-2.3426 0-.9228-.319-1.7037-.958-2.3426-.604-.6389-1.349-.9584-2.236-.9584-.923 0-1.704.3195-2.343.9584s-.958 1.4198-.958 2.3426c0 .9229.319 1.7037.958 2.3426Zm4.685 34.8731V29.5824h-4.845v29.1762h4.845Zm12.57-.6388c1.775.7453 3.78 1.118 6.016 1.118 2.095 0 3.94-.3549 5.538-1.0648 1.632-.7454 2.892-1.757 3.78-3.0348.887-1.2778 1.331-2.7153 1.331-4.3125-.036-1.7747-.533-3.2122-1.491-4.3126-.923-1.1003-2.041-1.9167-3.354-2.4491-1.314-.5679-3.017-1.1358-5.111-1.7037-1.669-.4614-2.982-.8696-3.94-1.2245-.923-.3905-1.704-.8874-2.343-1.4908-.603-.6389-.905-1.4375-.905-2.3959 0-1.2068.515-2.1829 1.544-2.9282 1.029-.7454 2.414-1.1181 4.153-1.1181 1.881 0 3.372.4614 4.472 1.3843 1.136.9228 1.757 2.1474 1.864 3.6736h4.844c-.141-2.8395-1.206-5.0757-3.194-6.7084-1.988-1.6327-4.596-2.4491-7.826-2.4491-2.095 0-3.958.3727-5.591 1.1181-1.633.7099-2.893 1.686-3.78 2.9283-.887 1.2423-1.331 2.6088-1.331 4.0995 0 1.8812.479 3.4075 1.438 4.5788.993 1.1358 2.165 2.0054 3.513 2.6088 1.385.5679 3.159 1.1358 5.325 1.7038 2.378.6034 4.135 1.2245 5.271 1.8634 1.135.6034 1.703 1.544 1.703 2.8218 0 1.2423-.532 2.2716-1.597 3.088-1.065.8164-2.52 1.2245-4.366 1.2245-1.987 0-3.602-.4614-4.845-1.3842-1.207-.9229-1.881-2.1119-2.023-3.5672h-5.005c.107 1.7747.675 3.3542 1.704 4.7385 1.029 1.3488 2.431 2.4136 4.206 3.1945Zm-32.431-23.799c.852-1.6683 2.058-2.9638 3.62-3.8867 1.597-.9228 3.532-1.3842 5.803-1.3842v5.0047h-1.277c-5.431 0-8.146 2.946-8.146 8.838v15.866h-4.845V29.5823h4.845v4.7385Zm-40.825 1.9168c-1.207 2.2361-1.81 4.8449-1.81 7.8264 0 2.9461.603 5.5726 1.81 7.8798 1.207 2.3071 2.857 4.0995 4.952 5.3773 2.094 1.2778 4.436 1.9167 7.027 1.9167 2.521 0 4.721-.5501 6.602-1.6505 1.917-1.1358 3.355-2.5555 4.313-4.2593v5.4307h4.898V29.5824h-4.898v5.3241c-.923-1.6682-2.325-3.0525-4.206-4.1528-1.881-1.1003-4.1-1.6505-6.655-1.6505-2.591 0-4.952.6212-7.081 1.8635-2.095 1.2423-3.745 2.9992-4.952 5.2709Zm21.563 2.1296c.887 1.6327 1.331 3.5494 1.331 5.7501 0 2.2006-.444 4.1351-1.331 5.8033-.887 1.6327-2.094 2.8928-3.62 3.7801-1.491.8519-3.142 1.2778-4.952 1.2778s-3.461-.4259-4.951-1.2778c-1.491-.8873-2.68-2.1474-3.568-3.7801-.887-1.6682-1.331-3.6204-1.331-5.8566 0-2.2006.444-4.1173 1.331-5.75.888-1.6328 2.077-2.8751 3.568-3.7269 1.49-.8519 3.141-1.2778 4.951-1.2778 1.81 0 3.461.4437 4.952 1.331 1.526.8519 2.733 2.0942 3.62 3.7269Zm-29.82-19.0073v39.3987h-4.845V19.3599h4.845Zm-33.63 38.0145c2.236 1.2423 4.721 1.8634 7.454 1.8634 2.768 0 5.288-.6211 7.56-1.8634 2.272-1.2423 4.064-2.9993 5.377-5.2709 1.349-2.3071 2.024-4.9692 2.024-7.9862 0-3.017-.657-5.6614-1.97-7.933-1.278-2.2716-3.035-4.0108-5.271-5.2176-2.236-1.2423-4.739-1.8635-7.507-1.8635-2.769 0-5.271.6212-7.507 1.8635-2.236 1.2068-4.011 2.9637-5.324 5.2709-1.278 2.2716-1.917 4.8982-1.917 7.8797 0 3.017.621 5.6791 1.863 7.9862 1.278 2.2716 3.017 4.0286 5.218 5.2709Zm12.352-3.6204c-1.526.8163-3.159 1.2245-4.898 1.2245-1.739 0-3.337-.3904-4.792-1.1713-1.455-.8164-2.627-2.0409-3.514-3.6736-.852-1.6328-1.278-3.6382-1.278-6.0163 0-2.3426.444-4.3303 1.331-5.9631.888-1.6327 2.059-2.8395 3.514-3.6204 1.491-.8163 3.124-1.2245 4.898-1.2245 1.74 0 3.355.4082 4.845 1.2245 1.491.7809 2.698 1.9877 3.621 3.6204.923 1.6328 1.384 3.6205 1.384 5.9631s-.479 4.3303-1.437 5.963c-.923 1.6327-2.148 2.8573-3.674 3.6737Zm-23.645-21.2435c0 3.088-1.064 5.6613-3.194 7.72-2.094 2.0232-5.307 3.0348-9.637 3.0348h-7.134v15.4932h-4.845V21.6493h11.979c4.189 0 7.365 1.0116 9.53 3.0347 2.201 2.0232 3.301 4.632 3.301 7.8265Zm-12.831 6.7617c2.698 0 4.685-.5857 5.963-1.757 1.278-1.1713 1.917-2.8395 1.917-5.0047 0-4.5787-2.627-6.8681-7.88-6.8681h-7.134v13.6298h7.134Zm-25.03-8.9445c-1.74-.9939-3.727-1.4908-5.963-1.4908-1.953 0-3.727.3727-5.324 1.1181-1.598.7099-2.876 1.7037-3.834 2.9815V19.3599h-7.454v39.3987h7.454V42.4667c0-2.3426.586-4.1351 1.757-5.3774 1.207-1.2778 2.84-1.9167 4.898-1.9167 2.023 0 3.621.6389 4.792 1.9167 1.171 1.2423 1.757 3.0348 1.757 5.3774v16.2919h7.454V41.4551c0-2.6621-.497-4.9337-1.491-6.8149-.958-1.9167-2.307-3.3542-4.046-4.3125Zm-51.204 3.1945c.958-1.3488 2.271-2.4669 3.939-3.3542 1.704-.9229 3.639-1.3843 5.804-1.3843 2.52 0 4.792.6212 6.815 1.8634 2.058 1.2423 3.673 3.0171 4.845 5.3242 1.206 2.2716 1.81 4.9159 1.81 7.933 0 3.017-.604 5.6968-1.81 8.0394-1.172 2.3071-2.787 4.0996-4.845 5.3774-2.023 1.2778-4.295 1.9167-6.815 1.9167-2.165 0-4.082-.4437-5.75-1.3311-1.633-.8873-2.964-2.0054-3.993-3.3542v18.2618h-7.454V29.2629h7.454v4.2593Zm15.599 10.3821c0-1.7748-.372-3.301-1.118-4.5788-.71-1.3133-1.668-2.3071-2.875-2.9815-1.171-.6744-2.449-1.0116-3.833-1.0116-1.349 0-2.627.3549-3.834 1.0648-1.171.6744-2.129 1.6682-2.875 2.9815-.709 1.3133-1.064 2.8573-1.064 4.632 0 1.7747.355 3.3187 1.064 4.632.746 1.3133 1.704 2.3249 2.875 3.0348 1.207.6744 2.485 1.0116 3.834 1.0116 1.384 0 2.662-.355 3.833-1.0648 1.207-.7099 2.165-1.7215 2.875-3.0348.746-1.3133 1.118-2.875 1.118-4.6852Zm-59.296-7.933c-1.172 2.3071-1.757 4.9514-1.757 7.933 0 3.017.585 5.6968 1.757 8.0394 1.206 2.3071 2.821 4.0996 4.845 5.3774 2.058 1.2778 4.33 1.9167 6.815 1.9167 2.2 0 4.135-.4437 5.803-1.3311 1.704-.9228 3.035-2.0764 3.993-3.4607v4.3126h7.507V29.2629h-7.507v4.206c-.994-1.3487-2.325-2.4668-3.993-3.3542-1.633-.8873-3.55-1.331-5.75-1.331-2.52 0-4.81.6212-6.868 1.8634-2.024 1.2423-3.639 3.0171-4.845 5.3242Zm20.391 3.4074c.71 1.2778 1.065 2.8218 1.065 4.632 0 1.8102-.355 3.372-1.065 4.6853-.71 1.2778-1.668 2.2716-2.875 2.9815-1.207.6744-2.502 1.0116-3.887 1.0116-1.348 0-2.626-.355-3.833-1.0648-1.171-.7099-2.13-1.7215-2.875-3.0348-.71-1.3488-1.065-2.9105-1.065-4.6852 0-1.7748.355-3.301 1.065-4.5788.745-1.3133 1.704-2.3071 2.875-2.9815 1.171-.6744 2.449-1.0116 3.833-1.0116 1.385 0 2.68.3549 3.887 1.0648 1.207.6744 2.165 1.6682 2.875 2.9815Zm-34.303-5.537c.958-1.5617 2.2-2.7863 3.727-3.6736 1.561-.8874 3.336-1.3311 5.324-1.3311v7.8265h-1.97c-2.343 0-4.117.5502-5.324 1.6505-1.172 1.1003-1.757 3.017-1.757 5.7501v14.6946h-7.454V29.263h7.454v4.5787Zm-25.96-4.6321c1.491.8164 2.663 2.0055 3.514 3.5672h8.572c-1.171-3.6914-3.301-6.5487-6.389-8.5719-3.088-2.0586-6.726-3.088-10.914-3.088-3.55 0-6.78.8164-9.69 2.4491-2.875 1.5973-5.1468 3.8512-6.815 6.7617-1.6328 2.875-2.4491 6.1405-2.4491 9.7964s.8163 6.9214 2.4491 9.7964c1.6682 2.8751 3.94 5.129 6.815 6.7617 2.91 1.5972 6.158 2.3958 9.743 2.3958 3.195 0 6.07-.6566 8.625-1.9699 2.591-1.3488 4.703-3.1235 6.336-5.3241 1.633-2.2007 2.697-4.5965 3.194-7.1876v-6.4955h-20.125v5.6969h12.778c-.568 2.6975-1.757 4.8094-3.567 6.3357-1.81 1.4908-4.135 2.2361-6.975 2.2361-2.307 0-4.33-.4969-6.069-1.4907-1.739-.9939-3.106-2.4136-4.1-4.2593-.958-1.8457-1.437-4.0109-1.437-6.4955 0-2.4136.479-4.5432 1.437-6.389.958-1.8456 2.29-3.2654 3.993-4.2593 1.704-.9938 3.656-1.4907 5.857-1.4907 1.987 0 3.727.4082 5.217 1.2245Z" clip-rule="evenodd"/>
</svg>
